<?xml version="1.0" standalone="no"?>
<!DOCTYPE svg PUBLIC "-//W3C//DTD SVG 20010904//EN"
 "http://www.w3.org/TR/2001/REC-SVG-20010904/DTD/svg10.dtd">
<svg version="1.0" xmlns="http://www.w3.org/2000/svg"
 width="700.000000pt" height="700.000000pt" viewBox="0 0 700.000000 700.000000"
 preserveAspectRatio="xMidYMid meet">
<metadata>
Created by potrace 1.11, written by Peter Selinger 2001-2013
</metadata>
<g transform="translate(0.000000,700.000000) scale(0.100000,-0.100000)"
fill="#000000" stroke="none">
<path d="M1610 6986 c-13 -11 -996 -672 -1155 -776 -30 -19 -137 -91 -238
-159 l-185 -123 1 -2706 c0 -2509 1 -2711 16 -2768 47 -169 187 -322 363 -396
l53 -23 3005 -3 c2088 -2 3020 1 3055 8 181 39 364 212 424 402 20 62 20 100
20 2774 l1 2711 -102 69 c-57 38 -111 73 -120 79 -10 5 -77 51 -150 100 -73
50 -137 92 -143 94 -5 2 -12 7 -15 11 -3 4 -162 112 -355 240 -192 129 -432
289 -533 357 l-183 123 -1872 0 c-1573 0 -1875 -2 -1887 -14z m3749 -1322
c289 -145 529 -268 534 -273 4 -4 9 -247 10 -540 l2 -531 -140 0 c-159 0
-4279 0 -4513 0 l-152 0 2 537 3 536 530 267 530 267 1335 1 1335 0 524 -264z
m-3642 -3498 c184 -22 366 -179 424 -366 87 -280 -68 -581 -346 -671 -91 -30
-234 -32 -315 -4 -167 56 -296 181 -352 342 -19 56 -23 87 -22 178 1 94 5 120
28 179 55 144 175 264 313 316 55 21 171 40 208 34 11 -2 39 -5 62 -8z m3793
-12 c172 -48 320 -195 369 -365 24 -85 26 -200 6 -279 -25 -98 -68 -172 -143
-248 -77 -78 -177 -133 -271 -150 -49 -9 -174 -8 -211 1 -59 15 -81 23 -125
45 -48 24 -155 101 -155 112 0 3 -14 21 -31 40 -134 151 -149 428 -34 610 35
55 118 139 170 172 123 77 285 101 425 62z"/>
</g>
</svg>
