<?xml version="1.0" standalone="no"?>
<!DOCTYPE svg PUBLIC "-//W3C//DTD SVG 20010904//EN"
 "http://www.w3.org/TR/2001/REC-SVG-20010904/DTD/svg10.dtd">
<svg xmlns="http://www.w3.org/2000/svg" viewBox="0 0 64 64">
  <path fill="white" d="m14.93457,0l-14.63423,9.80505l0,49.02205c0,2.45238 2.43957,4.90284 4.8785,4.90284l12.19467,0l17.07317,0l12.19403,0l12.19403,0c2.4402,0 4.87914,-2.4511 4.87914,-4.90284l0,-49.02205l-14.63233,-9.80505l-34.14697,0zm4.8785,9.80505l24.38934,0l9.75636,4.9022l0,9.80505l-43.90207,0l0,-9.80505l9.75637,-4.9022l0.00001,0zm-4.8785,34.31543c2.70274,0 4.8785,2.1879 4.8785,4.90221c0,2.71686 -2.17576,4.90284 -4.8785,4.90284c-2.7021,0 -4.87787,-2.18662 -4.87787,-4.90284c0,-2.71431 2.17576,-4.90221 4.87787,-4.90221zm34.14697,0c2.70147,0 4.87659,2.1879 4.87659,4.90221c0,2.71686 -2.17576,4.90284 -4.87659,4.90284c-2.70274,0 -4.87913,-2.18662 -4.87913,-4.90284c-0.00064,-2.71431 2.17639,-4.90221 4.87913,-4.90221z" class=""></path>
</svg>